<svg xmlns="http://www.w3.org/2000/svg" width="1200" height="420" viewBox="0 0 1200 420" preserveAspectRatio="xMidYMid slice">
  <defs>
    <linearGradient id="b2sky" x1="0" y1="0" x2=".8" y2="1">
      <stop offset="0" stop-color="#e7f5ff"/>
      <stop offset="1" stop-color="#8fd0c0"/>
    </linearGradient>
  </defs>
  <rect width="1200" height="420" fill="url(#b2sky)"/>
  <path d="M-20 280 C160 200 300 250 460 180 C640 100 800 210 1220 140 L1220 420 L-20 420 Z" fill="#9fd9c4"/>
  <path d="M-20 340 C180 270 360 320 540 260 C760 190 940 300 1220 240 L1220 420 L-20 420 Z" fill="#5fb89a"/>
  <g fill="#0f4c3a" opacity=".45">
    <rect x="720" y="150" width="70" height="270"/>
    <rect x="800" y="110" width="90" height="310"/>
    <rect x="900" y="170" width="55" height="250"/>
    <rect x="965" y="90" width="80" height="330"/>
    <rect x="1060" y="140" width="100" height="280"/>
  </g>
</svg>
